<?xml version="1.0" encoding="UTF-8"?><svg id="_레이어_1" xmlns="http://www.w3.org/2000/svg" viewBox="0 0 839.49 197.93"><defs><style>.cls-1{fill:#fff;}.cls-2{fill:#e73472;}</style></defs><path class="cls-2" d="M839.23,114.48v14.4c0,5.8-3.2,9-9,9h-46.2l-.2,2.8-.2,.6c-.4,1.6-.8,3-1.4,4.4l7.6-.8c8-.8,14.8,2.2,18,8,6.6,2,11.2,7.6,11.2,15.2v13c0,5.4-2.6,8.8-8,9.8-21.8,3.6-53.6,3.8-71.59,2.2-17.61-1.8-29.8-6.4-36.8-14.4-7.8-4.2-12.8-10.2-15-18.2-1.6-5.4-2.2-13.8-1.8-22.8-4.8-.8-8.6-3.4-10.8-7.4-6.6-1.8-10.8-7.4-10.8-15v-14.4c0-5.8,3.2-9,9-9h11.2c-3.6-4.8-5.2-11.2-4.4-18.2,.4-5,3.6-7.6,8.4-9,3.6-1,7.2-2,10.4-3-1.61-1.2-2.8-2.6-3.8-4.4-6.6-1.8-10.8-7.2-10.8-14.8v-14c0-5.8,3.2-9,9-9h29.99l2.6,.2-.6-2.6-.4-2.6c0-.2,.61-1.2,1.81-3.8,1.39-2.6,3-4.8,7-6.8,6.99-3.4,14.99-4.6,22.39-2.8,5.6,1.2,9.8,4.2,12.4,8,5.4,2,9,5.8,10.8,10.4h17.2c6.4,0,11.2,2.8,13.8,7.6,6.6,1.8,10.8,7.2,10.8,14.8v14c0,5.8-3.2,9-9,9h-3.2l2,2.4c8.6,3.8,13.2,11.2,12.4,20.8-.2,1.8-.6,3.6-1.2,5.4,2.8,1.4,5,3.4,6.4,6,6.6,1.8,10.8,7.4,10.8,15Zm-18,7.4v-14.4c0-4.4-2.2-6.6-6.8-6.6h-141.19v14.4c0,4.4,2.2,6.6,6.8,6.6h60.4v19.6c15.19,1.6,23.79-1.2,25.39-9,.4-2.8,.4-7.2,.4-10.6h55Zm-16-41.6c.6-6.4-2.6-10.6-9.2-12.6l-37.6-10.6c1.2-2.6,2-5.4,2.4-8.2h42.2v-14c0-4.4-2.4-6.4-6.6-6.4h-36.6c5.4-8.4,3-16.8-5.8-18.6-7.2-1.8-14.8,.4-20.2,4.4v.2c1.2,4,2.2,9,3.4,14h-43.99v14c0,4.4,2.4,6.4,6.6,6.4h35.99c-4,9.4-20.39,18.2-46.79,25-.8,6.6,.8,12,5.4,15.4,4.2,2.8,10.6,3,19.2,.4,11-3.4,21-8.2,28.8-14l55.59,16.4c4.4-2.8,6.8-7.6,7.2-11.8Zm-4.2,94.6v-13.8c0-5.2-4.4-7.8-10.2-7.2-18.4,1.8-41.8,2.4-56.39,.6-9-1.2-12.41-3.4-13.6-8-.81-2.8-1-8-1-10.8,.19-5.2-1.81-7.2-6.2-7.2h-18c-1.2,9.6-1.4,22.4,.59,29.6,3,10.4,12.81,16.8,35,19,17.8,1.6,48.6,1.4,69.8-2.2Z"/><path class="cls-1" d="M821.23,107.48v14.4h-55c0,3.4,0,7.8-.4,10.6-1.6,7.8-10.2,10.6-25.39,9v-19.6h-60.4c-4.6,0-6.8-2.2-6.8-6.6v-14.4h141.19c4.6,0,6.8,2.2,6.8,6.6Z"/><path class="cls-1" d="M796.03,67.68c6.6,2,9.8,6.2,9.2,12.6-.4,4.2-2.8,9-7.2,11.8l-55.59-16.4c-7.8,5.8-17.8,10.6-28.8,14-8.6,2.6-15,2.4-19.2-.4-4.6-3.4-6.2-8.8-5.4-15.4,26.4-6.8,42.79-15.6,46.79-25h-35.99c-4.2,0-6.6-2-6.6-6.4v-14h43.99c-1.2-5-2.2-10-3.4-14v-.2c5.4-4,13-6.2,20.2-4.4,8.8,1.8,11.2,10.2,5.8,18.6h36.6c4.2,0,6.6,2,6.6,6.4v14h-42.2c-.4,2.8-1.2,5.6-2.4,8.2l37.6,10.6Z"/><path class="cls-1" d="M801.03,161.08v13.8c-21.2,3.6-52,3.8-69.8,2.2-22.19-2.2-32-8.6-35-19-1.99-7.2-1.79-20-.59-29.6h18c4.39,0,6.39,2,6.2,7.2,0,2.8,.19,8,1,10.8,1.19,4.6,4.6,6.8,13.6,8,14.59,1.8,37.99,1.2,56.39-.6,5.8-.6,10.2,2,10.2,7.2Z"/><path class="cls-2" d="M658.04,94.28c0,6.4,.2,12-1,17.4-1.6,7.6-6,12.4-12.6,15,10.4,7.6,16.4,18.2,16.4,31.2,0,25.4-22.6,39.8-61.2,39.8-24.2,0-42.2-5.6-52.2-16.2-11.6-6.8-18-17.2-18-30.6,0-11.6,4.8-21.4,13.4-28.8-6,2.6-12.6,3-18.4,.8-4-1.6-7.4-4-9.8-7.4-7.4-3.2-12.4-9.8-14-18-.8-4.8,1.4-8,5.4-10.8,8.6-6.4,15.6-13.6,20.6-20.6-4.8-.8-8.2-3.4-10.2-7.2-6.6-1.6-10.8-7.2-10.8-14.6v-14c0-5.8,3.2-9,9-9h17.4v-.2c-1-4.6-.2-8.4,3.4-11.4,7.6-5.8,18.4-8,27-5,4.4,1.6,7.8,4.2,10.2,7.6,4.8,1.8,8.2,5,10.2,9h3.8c6.4,0,11.2,2.8,13.6,7.6,2.2,.6,4,1.4,5.6,2.8V13.48c0-5.8,3.2-9,9-9h18.4c6.4,0,11.4,2.8,14,7.6,6.6,1.8,10.8,7.4,10.8,15V94.28Zm-18.8,8.4c1.2-5.4,.8-11.6,.8-20.6V20.08c0-4.4-2.2-6.6-6.8-6.6h-18.4V56.28h-27.6c-2.2,5.8-2.4,13.6-.6,17.2,2.4,4.6,7.4,6.8,28.2,5v34c15.4,1.6,22.6-1.4,24.4-9.8Zm-48.6,79c35.8,0,52.2-12.4,52.2-30.8s-16.8-34.2-52.2-34.2-52.2,15.8-52.2,34.2,16.4,30.8,52.2,30.8Zm4.8-82.8c1.6-4.8,.4-9.8-6.2-14.6l-26.4-19.2c1.6-5.2,2.6-10,2.8-14.6h27.4v-14c0-4.2-2.2-6.2-6.4-6.2h-22c4-8,2-14.6-5.2-17-6.2-2.2-14-.2-19,4,1,4.6,2.2,8.6,3.4,13h-29.2v14c0,4.2,2.2,6.2,6.4,6.2h21.4c-1,13.2-13.2,30.8-33,44.8,.8,5.4,4,10.2,9.2,12.2,4.4,1.6,10.8,1,16.8-3.6,6.6-5,12.2-11.2,16.8-17.8l32.2,21.8c5-1,9.4-4.6,11-9Z"/><path class="cls-1" d="M640.04,82.08c0,9,.4,15.2-.8,20.6-1.8,8.4-9,11.4-24.4,9.8v-34c-20.8,1.8-25.8-.4-28.2-5-1.8-3.6-1.6-11.4,.6-17.2h27.6V13.48h18.4c4.6,0,6.8,2.2,6.8,6.6v62Z"/><path class="cls-1" d="M642.84,150.88c0,18.4-16.4,30.8-52.2,30.8s-52.2-12.4-52.2-30.8,16.8-34.2,52.2-34.2,52.2,15.8,52.2,34.2Zm-52.2,9.4c19.8,0,26.4-4.4,26.4-11s-8-12.2-26.4-12.2-26.4,5.6-26.4,12.2,6.6,11,26.4,11Z"/><path class="cls-2" d="M617.04,149.28c0,6.6-6.6,11-26.4,11s-26.4-4.4-26.4-11,8-12.2,26.4-12.2,26.4,5.6,26.4,12.2Z"/><path class="cls-1" d="M589.24,84.28c6.6,4.8,7.8,9.8,6.2,14.6-1.6,4.4-6,8-11,9l-32.2-21.8c-4.6,6.6-10.2,12.8-16.8,17.8-6,4.6-12.4,5.2-16.8,3.6-5.2-2-8.4-6.8-9.2-12.2,19.8-14,32-31.6,33-44.8h-21.4c-4.2,0-6.4-2-6.4-6.2v-14h29.2c-1.2-4.4-2.4-8.4-3.4-13,5-4.2,12.8-6.2,19-4,7.2,2.4,9.2,9,5.2,17h22c4.2,0,6.4,2,6.4,6.2v14h-27.4c-.2,4.6-1.2,9.4-2.8,14.6l26.4,19.2Z"/><path class="cls-2" d="M507.24,148.68v15.4c0,5.8-3.2,9-9,9h-141.2c-6.4,0-11.4-2.8-14-7.6-6.6-1.8-10.8-7.4-10.8-15v-15.4c0-5.8,3.2-9,9-9h50.6v-5c-8.2-2.4-14.8-6.2-19.8-11.4-8.8-5.2-14.8-12.6-17-22.4-2.6-12.4-2.2-36,1.2-57.8,.8-5.4,4.2-8.2,9.8-8.2h90.4c6.4,0,11.6,2.8,14,7.6,6.6,1.8,10.8,7.2,10.8,14.4v16.6c0,5.8-3.2,9-9,9h-66.8c0,2.6,0,5.4,.2,7.4,12.2,1.6,31.8,1.4,51.2-.4,7.6-.8,14,2.2,17.2,7.8,6.6,1.8,11,7.4,11,15.4v13c0,5.6-2.8,8.8-8.4,9.6-9.8,1.2-19.4,2.2-29,2.8v1.6h34.8c6.4,0,11.4,2.8,14,7.6,6.6,1.8,10.8,7.4,10.8,15Zm-18,8.4v-15.4c0-4.4-2.2-6.6-6.8-6.6h-52.8v-26.2c11.6-.4,24-1.4,37.4-3.2v-13.6c0-5.4-3.6-7.8-9.4-7.2-16.8,1.6-39.4,2.4-54.6,.2-10-1.4-14.4-5.2-15.2-12-.6-4-.4-15.8,.2-20.2h75.2v-16.6c0-3.8-2.2-6-6.8-6h-91.2c-3.4,21.6-3.8,44-1.4,55,2.8,12.2,13.6,20.6,34.4,22.6,.8,0,1.8,.2,2.6,.2v27h-59.6v15.4c0,4.4,2.2,6.6,6.8,6.6h141.2Z"/><path class="cls-1" d="M489.24,141.68v15.4h-141.2c-4.6,0-6.8-2.2-6.8-6.6v-15.4h59.6v-27c-.8,0-1.8-.2-2.6-.2-20.8-2-31.6-10.4-34.4-22.6-2.4-11-2-33.4,1.4-55h91.2c4.6,0,6.8,2.2,6.8,6v16.6h-75.2c-.6,4.4-.8,16.2-.2,20.2,.8,6.8,5.2,10.6,15.2,12,15.2,2.2,37.8,1.4,54.6-.2,5.8-.6,9.4,1.8,9.4,7.2v13.6c-13.4,1.8-25.8,2.8-37.4,3.2v26.2h52.8c4.6,0,6.8,2.2,6.8,6.6Z"/><path class="cls-2" d="M341.24,92.08v14.4c0,5.8-3.2,9-9,9h-16c.4,1.4,.6,3,.6,4.8v31.2c0,3.2-.6,6-2,8.2,3.8,2.6,6.2,6.6,6.2,11.8v12.4c0,5.6-2.8,8.8-8.2,9.6-27.8,3.8-62,4.2-81.4,.8-12-1.8-20.8-6-26.2-12.4-6.6-3.6-11.2-8.4-13.8-14.6-3.4-8.6-3.8-22.2-.8-34.2,.4-1.8,1-3.2,1.8-4.4-2.2-2.8-3.4-6.4-3.4-10.8v-2.4c-5.4-.6-9.6-3.4-12-7.6-6.6-1.8-10.8-7.4-10.8-15v-14.4c0-5.8,3.2-9,9-9h25.2c-5.6-4.4-9.2-10.2-11.2-18-1.8-7.4-2.4-22.8-1.6-34.2,.4-5.4,4-8.2,9.6-8.2h17c6.6,0,11.4,2.8,13.8,7.6,6.8,1.6,10.8,7.2,10.8,15,0,1.4,0,4.8,.2,8,12.2,1.4,40.2,.8,53.6-.2,7.6-.8,13.8,2.2,16.8,7.6,6.6,2,11,7.4,11,15.2v7.6c4.6,1,8,3.4,10,7.2,6.6,1.8,10.8,7.4,10.8,15Zm-18,7.4v-14.4c0-4.4-2.2-6.6-6.8-6.6H175.24v14.4c0,4.4,2.2,6.6,6.8,6.6h141.2Zm-20.2,78v-13c0-3.6-2.6-5.6-7.6-5.2-21.4,1.8-55,2-66.6,0-5.8-1-7.8-3.2-7.6-7.8h70.2c5,0,7.4-2.4,7.4-7v-31.2c0-4-1.8-6-6.2-6h-94.6v10.6c0,5.4,3.4,8.4,9.6,8.4h68.2v8.2h-76.4c-2.6,10.8-2.4,22.4,.4,29.4,3,7.6,10.8,12.4,24,14.6,20.4,3.4,54.4,2.4,79.2-1Zm-.6-109.2v-13c0-5-3.2-7.4-9-6.8-14.4,1-45.8,1.6-57.6-.2-10-1.6-13.4-4.4-14.4-10.8-.4-3.6-.6-10.6-.6-12.8,0-4.6-2-6.6-6.6-6.6h-17.6c-.8,10.4-.2,24.6,1.4,31.4,3,12.4,11.8,18.2,31,20.4,19.4,2,52.2,1.6,73.4-1.6Z"/><path class="cls-1" d="M323.24,85.08v14.4H182.04c-4.6,0-6.8-2.2-6.8-6.6v-14.4h141.2c4.6,0,6.8,2.2,6.8,6.6Z"/><path class="cls-1" d="M303.04,164.48v13c-24.8,3.4-58.8,4.4-79.2,1-13.2-2.2-21-7-24-14.6-2.8-7-3-18.6-.4-29.4h76.4v-8.2h-68.2c-6.2,0-9.6-3-9.6-8.4v-10.6h94.6c4.4,0,6.2,2,6.2,6v31.2c0,4.6-2.4,7-7.4,7h-70.2c-.2,4.6,1.8,6.8,7.6,7.8,11.6,2,45.2,1.8,66.6,0,5-.4,7.6,1.6,7.6,5.2Z"/><path class="cls-1" d="M302.44,55.28v13c-21.2,3.2-54,3.6-73.4,1.6-19.2-2.2-28-8-31-20.4-1.6-6.8-2.2-21-1.4-31.4h17.6c4.6,0,6.6,2,6.6,6.6,0,2.2,.2,9.2,.6,12.8,1,6.4,4.4,9.2,14.4,10.8,11.8,1.8,43.2,1.2,57.6,.2,5.8-.6,9,1.8,9,6.8Z"/><path class="cls-2" d="M175.24,147.68v15.4c0,5.8-3.2,9-9,9H25.05c-6.4,0-11.4-2.8-14-7.6-6.6-1.8-10.8-7.4-10.8-15v-15.4c0-5.8,3.2-9,9-9H59.85v-4.2c-5.4-2.6-10-5.8-13.8-9.6-14.6-8.8-22.8-23.4-22.8-41.6,0-31,25.2-53.4,60.6-53.6,18.59-.2,34.39,6,45.19,16.6,15.2,9.4,24.4,25,24.4,44,0,23.8-14.2,41.4-37.79,48v.4h34.79c6.4,0,11.4,2.8,14,7.6,6.6,1.8,10.8,7.4,10.8,15Zm-18,8.4v-15.4c0-4.4-2.2-6.6-6.8-6.6h-52.79v-23.6c25.59-4.4,37.79-20.8,37.79-40.8,0-23.2-18-44.8-51.59-44.6-33.6,.2-51.6,21.4-51.6,44.6,0,19.8,11.8,36,36.6,40.6v23.8H9.25v15.4c0,4.4,2.2,6.6,6.8,6.6H157.24Z"/><path class="cls-1" d="M157.24,140.68v15.4H16.05c-4.6,0-6.8-2.2-6.8-6.6v-15.4h59.6v-23.8c-24.8-4.6-36.6-20.8-36.6-40.6,0-23.2,18-44.4,51.6-44.6,33.59-.2,51.59,21.4,51.59,44.6,0,20-12.2,36.4-37.79,40.8v23.6h52.79c4.6,0,6.8,2.2,6.8,6.6Zm-73.39-51.6c17.8,0,25.2-9.4,25.2-20.8s-9.4-21.4-25.2-21.4-25.2,10-25.2,21.4,7.4,20.8,25.2,20.8Z"/><path class="cls-2" d="M109.05,68.28c0,11.4-7.4,20.8-25.2,20.8s-25.2-9.4-25.2-20.8,9.4-21.4,25.2-21.4,25.2,10,25.2,21.4Zm-9,0c0-1.6-.4-3.2-1-4.6-1.8-.6-4-.8-6.2-.8-9.8,0-16.2,5.2-16.2,12.4,0,1.6,.2,3,.6,4.2,2,.4,4,.6,6.6,.6,11.2,0,16.2-4,16.2-11.8Z"/></svg>