<?xml version="1.0" encoding="UTF-8"?><svg id="_레이어_1" xmlns="http://www.w3.org/2000/svg" viewBox="0 0 903.52 179.38"><defs><style>.cls-1{fill:#f4d220;}.cls-2{fill:#e73472;}</style></defs><path class="cls-2" d="M901.8,141.09v36.51h-164.8v-46.17h39.47v15.58l49.34-.21c25.59-.14,53.22-2.11,75.99-5.71Z"/><polygon class="cls-2" points="900.74 94.36 900.74 124.95 841.6 124.95 841.6 139.89 800.15 139.89 800.15 124.95 736.99 124.95 736.99 94.36 782.32 94.36 900.74 94.36"/><polygon class="cls-2" points="900.74 18.51 900.74 48.12 861.9 48.12 900.74 88.02 855.41 88.02 818.83 48.96 782.32 88.02 736.99 88.02 775.83 48.12 736.99 48.12 736.99 18.51 798.18 18.51 798.18 4.7 839.62 4.7 839.62 18.51 900.74 18.51"/><path class="cls-2" d="M718.24,140.88h-18.61c-51.1-.56-63.72-14.38-64.36-32.92v-3.74h47.02c23.68,0,35.95,14.94,35.95,36.65Z"/><path class="cls-2" d="M699.63,140.88h18.61c0,21.71-12.27,36.72-35.95,36.72h-47.02v-2.19c0-19.31,11.91-33.69,64.36-34.54Z"/><polygon class="cls-2" points="717.18 10.62 717.18 98.31 677.78 98.31 677.78 74.2 659.81 74.2 659.81 44.59 677.78 40.65 677.78 10.62 717.18 10.62"/><polygon class="cls-2" points="677.78 40.65 659.81 44.59 644.02 44.59 662.91 98.31 622.52 98.31 607.64 48.33 592.91 98.31 552.38 98.31 571.34 44.59 552.38 44.59 552.38 14 587.34 14 587.34 1.74 628.79 1.74 628.79 14 662.91 14 662.91 40.65 677.78 40.65"/><path class="cls-1" d="M635.28,107.96c.63,18.54,13.25,32.35,64.36,32.92-52.44,.85-64.36,15.23-64.36,34.54,0-19.31-11.98-33.69-64.29-34.54,50.89-.56,63.72-14.38,64.29-32.92Z"/><path class="cls-2" d="M635.28,175.42v2.19h-46.95c-22.2,0-34.4-13.18-35.81-32.71-.07-1.34-.14-2.68-.14-4.02h18.61c52.3,.85,64.29,15.23,64.29,34.54Z"/><path class="cls-2" d="M635.28,104.23v3.74c-.56,18.54-13.39,32.35-64.29,32.92h-18.61c0-21.71,12.27-36.65,35.95-36.65h46.95Z"/><path class="cls-2" d="M533.7,147.01v30.59h-163.82v-30.59h61.18v-30.59h-61.18V10.62h162.76v30.59h-123.29v44.62c28.62,0,101.79-1.34,124.34-5.92v36.51h-61.25v30.59h61.25Z"/><path class="cls-2" d="M351.14,146.66v30.94H186.33v-49.69h124.34l1.76,18.75c-26.79,2.54-53.78,3.52-86.63,3.52v4.37c48.14,0,84.23-1.97,125.33-7.89Z"/><path class="cls-2" d="M350.15,100.63v41.66c-12.9,1.76-25.24,3.24-37.71,4.37l-1.76-18.75v-4.16h-124.34v-23.12h163.82Z"/><rect class="cls-2" x="186.33" y="68.84" width="163.82" height="26.29"/><path class="cls-2" d="M350.15,29.02V63.56H186.33V10.62h39.47v24.32h48.36c25.66,0,53.29-2.4,75.99-5.92Z"/><path class="cls-2" d="M167.58,63.56h-8.32c-49.34-.99-74.58-21.92-74.58-50.96v-1.97h34.12c31.58,0,48.78,19.38,48.78,52.94Z"/><path class="cls-2" d="M159.27,63.56h8.32c0,33.55-17.2,52.87-48.78,52.87h-13.39l-20.72-1.97c0-28.97,25.24-49.91,74.58-50.89Z"/><polygon class="cls-2" points="166.6 147.01 166.6 177.61 2.78 177.61 2.78 147.01 63.96 147.01 63.96 116.42 84.69 114.45 105.41 116.42 105.41 147.01 166.6 147.01"/><path class="cls-1" d="M84.69,12.59c0,29.04,25.24,49.98,74.58,50.96-49.34,.99-74.58,21.92-74.58,50.89,0-28.97-25.52-49.91-74.86-50.89,49.34-.99,74.86-21.92,74.86-50.96Z"/><path class="cls-2" d="M84.69,10.62v1.97c0,29.04-25.52,49.98-74.86,50.96H1.79C1.79,30,18.92,10.62,50.5,10.62h34.19Z"/><path class="cls-2" d="M84.69,114.45l-20.72,1.97h-13.46C18.92,116.42,1.79,97.11,1.79,63.56H9.83c49.34,.99,74.86,21.92,74.86,50.89Z"/></svg>